<svg width="246" height="25" viewBox="0 0 246 25" fill="none" xmlns="http://www.w3.org/2000/svg">
<g clip-path="url(#clip0_65_10433)">
<path d="M219.789 -1.00117L225.836 4.07769L217.05 12.0314L225.95 19.7934L220.017 25.064L204.386 12.4147L219.789 -1.00117ZM224.923 4.0777L219.789 -0.23455L205.299 12.2231L219.903 24.2015L224.923 19.6976L216.024 11.9356L224.923 4.0777Z" fill="#79674B"/>
<path d="M239.641 -1.00117L245.688 4.07769L236.903 12.0314L245.802 19.7934L239.869 25.064L224.238 12.4147L239.641 -1.00117ZM244.775 4.0777L239.641 -0.23455L225.151 12.2231L239.869 24.2015L244.889 19.6976L235.99 11.9356L244.775 4.0777Z" fill="#79674B"/>
<path d="M179.399 -1.00117L185.446 4.07769L176.661 12.0314L185.561 19.7934L179.628 25.064L163.997 12.4147L179.399 -1.00117ZM184.534 4.0777L179.399 -0.23455L164.91 12.2231L179.628 24.2015L184.648 19.6976L175.748 11.9356L184.534 4.0777Z" fill="#79674B"/>
<path d="M199.252 -1.00117L205.299 4.07769L196.514 12.0314L205.413 19.7934L199.48 25.064L183.849 12.4147L199.252 -1.00117ZM204.386 4.0777L199.252 -0.23455L184.762 12.2231L199.48 24.2015L204.5 19.6976L195.601 11.9356L204.386 4.0777Z" fill="#79674B"/>
<path d="M221.044 20.081L215.567 24.9683L200.507 12.6065L215.339 -0.234432L220.93 4.46112L212.144 12.4148L221.044 20.081Z" fill="#53683F"/>
<path d="M240.896 20.081L235.419 24.9683L220.359 12.6065L235.305 -0.234432L240.896 4.46112L231.997 12.4148L240.896 20.081Z" fill="#53683F"/>
<path d="M180.654 20.081L175.292 24.9683L160.118 12.6065L175.064 -0.234432L180.654 4.46112L171.869 12.4148L180.654 20.081Z" fill="#53683F"/>
<path d="M200.621 20.081L195.144 24.9683L179.97 12.6065L194.916 -0.234432L200.507 4.46112L191.722 12.4148L200.621 20.081Z" fill="#53683F"/>
</g>
<g clip-path="url(#clip1_65_10433)">
<path d="M140.391 -1.00117L146.295 4.07769L137.717 12.0314L146.407 19.7934L140.613 25.064L125.35 12.4147L140.391 -1.00117ZM145.404 4.0777L140.391 -0.23455L126.242 12.2231L140.502 24.2015L145.404 19.6976L136.714 11.9356L145.404 4.0777Z" fill="#79674B"/>
<path d="M159.776 -1.00117L165.681 4.07769L157.102 12.0314L165.792 19.7934L159.999 25.064L144.736 12.4147L159.776 -1.00117ZM164.789 4.0777L159.776 -0.23455L145.627 12.2231L159.999 24.2015L164.901 19.6976L156.211 11.9356L164.789 4.0777Z" fill="#79674B"/>
<path d="M100.952 -1.00117L106.856 4.07769L98.278 12.0314L106.968 19.7934L101.175 25.064L85.9115 12.4147L100.952 -1.00117ZM105.965 4.0777L100.952 -0.23455L86.8028 12.2231L101.175 24.2015L106.077 19.6976L97.3867 11.9356L105.965 4.0777Z" fill="#79674B"/>
<path d="M120.337 -1.00117L126.242 4.07769L117.663 12.0314L126.353 19.7934L120.56 25.064L105.297 12.4147L120.337 -1.00117ZM125.35 4.0777L120.337 -0.23455L106.188 12.2231L120.56 24.2015L125.462 19.6976L116.772 11.9356L125.35 4.0777Z" fill="#79674B"/>
<path d="M141.616 20.081L136.268 24.9683L121.562 12.6065L136.046 -0.234432L141.505 4.46112L132.926 12.4148L141.616 20.081Z" fill="#53683F"/>
<path d="M161.001 20.081L155.654 24.9683L140.948 12.6065L155.542 -0.234432L161.001 4.46112L152.311 12.4148L161.001 20.081Z" fill="#53683F"/>
<path d="M102.177 20.081L96.9411 24.9683L82.1236 12.6065L96.7183 -0.234432L102.177 4.46112L93.5988 12.4148L102.177 20.081Z" fill="#53683F"/>
<path d="M121.674 20.081L116.326 24.9683L101.509 12.6065L116.103 -0.234432L121.562 4.46112L112.984 12.4148L121.674 20.081Z" fill="#53683F"/>
</g>
<g clip-path="url(#clip2_65_10433)">
<path d="M59.3634 -1.00117L65.4595 4.07769L56.6029 12.0314L65.5745 19.7934L59.5934 25.064L43.8356 12.4147L59.3634 -1.00117ZM64.5393 4.0777L59.3634 -0.23455L44.7558 12.2231L59.4784 24.2015L64.5393 19.6976L55.5677 11.9356L64.5393 4.0777Z" fill="#79674B"/>
<path d="M79.377 -1.00117L85.4731 4.07769L76.6165 12.0314L85.5881 19.7934L79.6071 25.064L63.8492 12.4147L79.377 -1.00117ZM84.5529 4.0777L79.377 -0.23455L64.7694 12.2231L79.6071 24.2015L84.668 19.6976L75.6963 11.9356L84.5529 4.0777Z" fill="#79674B"/>
<path d="M18.646 -1.00117L24.7421 4.07769L15.8855 12.0314L24.8571 19.7934L18.876 25.064L3.11819 12.4147L18.646 -1.00117ZM23.8219 4.0777L18.646 -0.23455L4.03836 12.2231L18.876 24.2015L23.937 19.6976L14.9653 11.9356L23.8219 4.0777Z" fill="#79674B"/>
<path d="M38.6596 -1.00117L44.7557 4.07769L35.8991 12.0314L44.8707 19.7934L38.8896 25.064L23.1318 12.4147L38.6596 -1.00117ZM43.8355 4.0777L38.6596 -0.23455L24.052 12.2231L38.8896 24.2015L43.9506 19.6976L34.9789 11.9356L43.8355 4.0777Z" fill="#79674B"/>
<path d="M60.6285 20.081L55.1075 24.9683L39.9248 12.6065L54.8775 -0.234432L60.5135 4.46112L51.6569 12.4148L60.6285 20.081Z" fill="#53683F"/>
<path d="M80.6422 20.081L75.1212 24.9683L59.9385 12.6065L75.0062 -0.234432L80.6422 4.46112L71.6706 12.4148L80.6422 20.081Z" fill="#53683F"/>
<path d="M19.9112 20.081L14.5052 24.9683L-0.792555 12.6065L14.2752 -0.234432L19.9112 4.46112L11.0546 12.4148L19.9112 20.081Z" fill="#53683F"/>
<path d="M40.0399 20.081L34.5189 24.9683L19.2211 12.6065L34.2888 -0.234432L39.9248 4.46112L31.0682 12.4148L40.0399 20.081Z" fill="#53683F"/>
</g>
<defs>
<clipPath id="clip0_65_10433">
<rect width="85" height="25" fill="white" transform="matrix(-1 0 0 -1 246 24.9971)"/>
</clipPath>
<clipPath id="clip1_65_10433">
<rect width="83" height="25" fill="white" transform="matrix(-1 0 0 -1 166 24.9971)"/>
</clipPath>
<clipPath id="clip2_65_10433">
<rect width="86" height="25" fill="white" transform="matrix(-1 0 0 -1 85.9996 24.9971)"/>
</clipPath>
</defs>
</svg>
