<svg width="246" height="25" viewBox="0 0 246 25" fill="none" xmlns="http://www.w3.org/2000/svg">
<g clip-path="url(#clip0_66_10668)">
<path d="M26.211 25.9978L20.164 20.9189L28.9492 12.9652L20.0499 5.20314L25.9828 -0.0673828L41.6137 12.5819L26.211 25.9978ZM21.0768 20.9189L26.211 25.2311L40.7009 12.7735L26.0969 0.795061L21.0768 5.29896L29.9761 13.061L21.0768 20.9189Z" fill="#79674B"/>
<path d="M6.3587 25.9978L0.311726 20.9189L9.09695 12.9652L0.197632 5.20314L6.13051 -0.0673828L21.7614 12.5819L6.3587 25.9978ZM1.22448 20.9189L6.3587 25.2311L20.8486 12.7735L6.13051 0.795061L1.11038 5.29896L10.0097 13.061L1.22448 20.9189Z" fill="#79674B"/>
<path d="M66.6002 25.9978L60.5532 20.9189L69.3384 12.9652L60.4391 5.20314L66.372 -0.0673828L82.0028 12.5819L66.6002 25.9978ZM61.4659 20.9189L66.6002 25.2311L81.0901 12.7735L66.372 0.795061L61.3518 5.29896L70.2512 13.061L61.4659 20.9189Z" fill="#79674B"/>
<path d="M46.7479 25.9978L40.7009 20.9189L49.4861 12.9652L40.5868 5.20314L46.5197 -0.0673828L62.1505 12.5819L46.7479 25.9978ZM41.6136 20.9189L46.7479 25.2311L61.2378 12.7735L46.5197 0.795061L41.4995 5.29896L50.3989 13.061L41.6136 20.9189Z" fill="#79674B"/>
<path d="M24.9561 4.91651L30.4326 0.0292969L45.4929 12.3911L30.6607 25.232L25.0701 20.5364L33.8554 12.5827L24.9561 4.91651Z" fill="#53683F"/>
<path d="M5.10364 4.91651L10.5801 0.0292969L25.6405 12.3911L10.6942 25.232L5.10364 20.5364L14.003 12.5827L5.10364 4.91651Z" fill="#53683F"/>
<path d="M65.3452 4.91651L70.7076 0.0292969L85.8821 12.3911L70.9358 25.232L65.3452 20.5364L74.1304 12.5827L65.3452 4.91651Z" fill="#53683F"/>
<path d="M45.3788 4.91651L50.8553 0.0292969L66.0298 12.3911L51.0835 25.232L45.4929 20.5364L54.2781 12.5827L45.3788 4.91651Z" fill="#53683F"/>
</g>
<g clip-path="url(#clip1_66_10668)">
<path d="M105.609 25.9978L99.7043 20.9189L108.283 12.9652L99.5929 5.20314L105.386 -0.0673828L120.649 12.5819L105.609 25.9978ZM100.596 20.9189L105.609 25.2311L119.758 12.7735L105.498 0.795061L100.596 5.29896L109.286 13.061L100.596 20.9189Z" fill="#79674B"/>
<path d="M86.2237 25.9978L80.3191 20.9189L88.8976 12.9652L80.2076 5.20314L86.0009 -0.0673828L101.264 12.5819L86.2237 25.9978ZM81.2103 20.9189L86.2237 25.2311L100.373 12.7735L86.0009 0.795061L81.0989 5.29896L89.7888 13.061L81.2103 20.9189Z" fill="#79674B"/>
<path d="M145.048 25.9978L139.143 20.9189L147.722 12.9652L139.032 5.20314L144.825 -0.0673828L160.088 12.5819L145.048 25.9978ZM140.034 20.9189L145.048 25.2311L159.197 12.7735L144.825 0.795061L139.923 5.29896L148.613 13.061L140.034 20.9189Z" fill="#79674B"/>
<path d="M125.663 25.9978L119.758 20.9189L128.337 12.9652L119.647 5.20314L125.44 -0.0673828L140.703 12.5819L125.663 25.9978ZM120.649 20.9189L125.663 25.2311L139.812 12.7735L125.44 0.795061L120.538 5.29896L129.228 13.061L120.649 20.9189Z" fill="#79674B"/>
<path d="M104.384 4.91651L109.731 0.0292969L124.437 12.3911L109.954 25.232L104.495 20.5364L113.073 12.5827L104.384 4.91651Z" fill="#53683F"/>
<path d="M84.9983 4.91651L90.3459 0.0292969L105.052 12.3911L90.4573 25.232L84.9983 20.5364L93.6882 12.5827L84.9983 4.91651Z" fill="#53683F"/>
<path d="M143.822 4.91651L149.059 0.0292969L163.876 12.3911L149.281 25.232L143.822 20.5364L152.401 12.5827L143.822 4.91651Z" fill="#53683F"/>
<path d="M124.326 4.91651L129.673 0.0292969L144.491 12.3911L129.896 25.232L124.437 20.5364L133.016 12.5827L124.326 4.91651Z" fill="#53683F"/>
</g>
<g clip-path="url(#clip2_66_10668)">
<path d="M186.636 25.9978L180.54 20.9189L189.397 12.9652L180.425 5.20314L186.406 -0.0673828L202.164 12.5819L186.636 25.9978ZM181.46 20.9189L186.636 25.2311L201.244 12.7735L186.521 0.795061L181.46 5.29896L190.432 13.061L181.46 20.9189Z" fill="#79674B"/>
<path d="M166.623 25.9978L160.527 20.9189L169.383 12.9652L160.411 5.20314L166.393 -0.0673828L182.15 12.5819L166.623 25.9978ZM161.447 20.9189L166.623 25.2311L181.23 12.7735L166.393 0.795061L161.332 5.29896L170.303 13.061L161.447 20.9189Z" fill="#79674B"/>
<path d="M227.354 25.9978L221.257 20.9189L230.114 12.9652L221.142 5.20314L227.124 -0.0673828L242.881 12.5819L227.354 25.9978ZM222.178 20.9189L227.354 25.2311L241.961 12.7735L227.124 0.795061L222.063 5.29896L231.034 13.061L222.178 20.9189Z" fill="#79674B"/>
<path d="M207.34 25.9978L201.244 20.9189L210.101 12.9652L201.129 5.20314L207.11 -0.0673828L222.868 12.5819L207.34 25.9978ZM202.164 20.9189L207.34 25.2311L221.948 12.7735L207.11 0.795061L202.049 5.29896L211.021 13.061L202.164 20.9189Z" fill="#79674B"/>
<path d="M185.371 4.91651L190.892 0.0292969L206.075 12.3911L191.122 25.232L185.486 20.5364L194.343 12.5827L185.371 4.91651Z" fill="#53683F"/>
<path d="M165.357 4.91651L170.878 0.0292969L186.061 12.3911L170.993 25.232L165.357 20.5364L174.329 12.5827L165.357 4.91651Z" fill="#53683F"/>
<path d="M226.089 4.91651L231.494 0.0292969L246.792 12.3911L231.725 25.232L226.089 20.5364L234.945 12.5827L226.089 4.91651Z" fill="#53683F"/>
<path d="M205.96 4.91651L211.481 0.0292969L226.779 12.3911L211.711 25.232L206.075 20.5364L214.931 12.5827L205.96 4.91651Z" fill="#53683F"/>
</g>
<defs>
<clipPath id="clip0_66_10668">
<rect width="85" height="25" fill="white"/>
</clipPath>
<clipPath id="clip1_66_10668">
<rect width="83" height="25" fill="white" transform="translate(80)"/>
</clipPath>
<clipPath id="clip2_66_10668">
<rect width="86" height="25" fill="white" transform="translate(160)"/>
</clipPath>
</defs>
</svg>
