<svg width="246" height="25" viewBox="0 0 246 25" fill="none" xmlns="http://www.w3.org/2000/svg">
<g clip-path="url(#clip0_66_10628)">
<path d="M219.789 -0.997757L225.836 4.08111L217.051 12.0348L225.95 19.7969L220.017 25.0674L204.386 12.4181L219.789 -0.997757ZM224.923 4.08112L219.789 -0.231133L205.299 12.2265L219.903 24.2049L224.923 19.701L216.024 11.939L224.923 4.08112Z" fill="#79674B"/>
<path d="M239.641 -0.997757L245.688 4.08111L236.903 12.0348L245.802 19.7969L239.869 25.0674L224.238 12.4181L239.641 -0.997757ZM244.775 4.08112L239.641 -0.231133L225.151 12.2265L239.869 24.2049L244.889 19.701L235.99 11.939L244.775 4.08112Z" fill="#79674B"/>
<path d="M179.4 -0.997757L185.447 4.08111L176.661 12.0348L185.561 19.7969L179.628 25.0674L163.997 12.4181L179.4 -0.997757ZM184.534 4.08112L179.4 -0.231133L164.91 12.2265L179.628 24.2049L184.648 19.701L175.749 11.939L184.534 4.08112Z" fill="#79674B"/>
<path d="M199.252 -0.997757L205.299 4.08111L196.514 12.0348L205.413 19.7969L199.48 25.0674L183.849 12.4181L199.252 -0.997757ZM204.386 4.08112L199.252 -0.231133L184.762 12.2265L199.48 24.2049L204.5 19.701L195.601 11.939L204.386 4.08112Z" fill="#79674B"/>
<path d="M221.044 20.0835L215.567 24.9707L200.507 12.6089L215.339 -0.231991L220.93 4.46357L212.144 12.4173L221.044 20.0835Z" fill="#53683F"/>
<path d="M240.896 20.0835L235.42 24.9707L220.359 12.6089L235.306 -0.231991L240.896 4.46357L231.997 12.4173L240.896 20.0835Z" fill="#53683F"/>
<path d="M180.655 20.0835L175.292 24.9707L160.118 12.6089L175.064 -0.231991L180.655 4.46357L171.869 12.4173L180.655 20.0835Z" fill="#53683F"/>
<path d="M200.621 20.0835L195.144 24.9707L179.97 12.6089L194.916 -0.231991L200.507 4.46357L191.722 12.4173L200.621 20.0835Z" fill="#53683F"/>
</g>
<g clip-path="url(#clip1_66_10628)">
<path d="M140.391 -0.997757L146.296 4.08111L137.717 12.0348L146.407 19.7969L140.614 25.0674L125.351 12.4181L140.391 -0.997757ZM145.404 4.08112L140.391 -0.231133L126.242 12.2265L140.502 24.2049L145.404 19.701L136.714 11.939L145.404 4.08112Z" fill="#79674B"/>
<path d="M159.776 -0.997757L165.681 4.08111L157.102 12.0348L165.792 19.7969L159.999 25.0674L144.736 12.4181L159.776 -0.997757ZM164.789 4.08112L159.776 -0.231133L145.627 12.2265L159.999 24.2049L164.901 19.701L156.211 11.939L164.789 4.08112Z" fill="#79674B"/>
<path d="M100.952 -0.997757L106.857 4.08111L98.2781 12.0348L106.968 19.7969L101.175 25.0674L85.9117 12.4181L100.952 -0.997757ZM105.965 4.08112L100.952 -0.231133L86.8029 12.2265L101.175 24.2049L106.077 19.701L97.3868 11.939L105.965 4.08112Z" fill="#79674B"/>
<path d="M120.337 -0.997757L126.242 4.08111L117.663 12.0348L126.353 19.7969L120.56 25.0674L105.297 12.4181L120.337 -0.997757ZM125.351 4.08112L120.337 -0.231133L106.188 12.2265L120.56 24.2049L125.462 19.701L116.772 11.939L125.351 4.08112Z" fill="#79674B"/>
<path d="M141.616 20.0835L136.269 24.9707L121.563 12.6089L136.046 -0.231991L141.505 4.46357L132.926 12.4173L141.616 20.0835Z" fill="#53683F"/>
<path d="M161.002 20.0835L155.654 24.9707L140.948 12.6089L155.542 -0.231991L161.002 4.46357L152.312 12.4173L161.002 20.0835Z" fill="#53683F"/>
<path d="M102.177 20.0835L96.9412 24.9707L82.1238 12.6089L96.7184 -0.231991L102.177 4.46357L93.5989 12.4173L102.177 20.0835Z" fill="#53683F"/>
<path d="M121.674 20.0835L116.326 24.9707L101.509 12.6089L116.104 -0.231991L121.563 4.46357L112.984 12.4173L121.674 20.0835Z" fill="#53683F"/>
</g>
<g clip-path="url(#clip2_66_10628)">
<path d="M59.3635 -0.997757L65.4596 4.08111L56.603 12.0348L65.5746 19.7969L59.5936 25.0674L43.8357 12.4181L59.3635 -0.997757ZM64.5395 4.08112L59.3635 -0.231133L44.7559 12.2265L59.4785 24.2049L64.5395 19.701L55.5678 11.939L64.5395 4.08112Z" fill="#79674B"/>
<path d="M79.3771 -0.997757L85.4732 4.08111L76.6166 12.0348L85.5882 19.7969L79.6071 25.0674L63.8493 12.4181L79.3771 -0.997757ZM84.553 4.08112L79.3771 -0.231133L64.7695 12.2265L79.6071 24.2049L84.6681 19.701L75.6964 11.939L84.553 4.08112Z" fill="#79674B"/>
<path d="M18.6461 -0.997757L24.7423 4.08111L15.8856 12.0348L24.8573 19.7969L18.8762 25.0674L3.11834 12.4181L18.6461 -0.997757ZM23.8221 4.08112L18.6461 -0.231133L4.03851 12.2265L18.8762 24.2049L23.9371 19.701L14.9655 11.939L23.8221 4.08112Z" fill="#79674B"/>
<path d="M38.6597 -0.997757L44.7558 4.08111L35.8992 12.0348L44.8708 19.7969L38.8898 25.0674L23.1319 12.4181L38.6597 -0.997757ZM43.8357 4.08112L38.6597 -0.231133L24.0521 12.2265L38.8898 24.2049L43.9507 19.701L34.9791 11.939L43.8357 4.08112Z" fill="#79674B"/>
<path d="M60.6287 20.0835L55.1077 24.9707L39.9249 12.6089L54.8776 -0.231991L60.5136 4.46357L51.657 12.4173L60.6287 20.0835Z" fill="#53683F"/>
<path d="M80.6424 20.0835L75.1214 24.9707L59.9386 12.6089L75.0063 -0.231991L80.6424 4.46357L71.6707 12.4173L80.6424 20.0835Z" fill="#53683F"/>
<path d="M19.9113 20.0835L14.5053 24.9707L-0.792463 12.6089L14.2753 -0.231991L19.9113 4.46357L11.0547 12.4173L19.9113 20.0835Z" fill="#53683F"/>
<path d="M40.0399 20.0835L34.5189 24.9707L19.2212 12.6089L34.2889 -0.231991L39.9249 4.46357L31.0683 12.4173L40.0399 20.0835Z" fill="#53683F"/>
</g>
<defs>
<clipPath id="clip0_66_10628">
<rect width="85" height="25" fill="white" transform="matrix(-1 0 0 -1 246 25)"/>
</clipPath>
<clipPath id="clip1_66_10628">
<rect width="83" height="25" fill="white" transform="matrix(-1 0 0 -1 166 25)"/>
</clipPath>
<clipPath id="clip2_66_10628">
<rect width="86" height="25" fill="white" transform="matrix(-1 0 0 -1 85.9998 25)"/>
</clipPath>
</defs>
</svg>
