<svg width="246" height="25" viewBox="0 0 246 25" fill="none" xmlns="http://www.w3.org/2000/svg">
<g clip-path="url(#clip0_66_10600)">
<path d="M26.2107 25.9978L20.1638 20.9189L28.949 12.9652L20.0497 5.20314L25.9826 -0.0673828L41.6134 12.5819L26.2107 25.9978ZM21.0765 20.9189L26.2107 25.2311L40.7007 12.7735L26.0967 0.795061L21.0765 5.29896L29.9758 13.061L21.0765 20.9189Z" fill="#79674B"/>
<path d="M6.35845 25.9978L0.311482 20.9189L9.09671 12.9652L0.197388 5.20314L6.13027 -0.0673828L21.7611 12.5819L6.35845 25.9978ZM1.22423 20.9189L6.35845 25.2311L20.8484 12.7735L6.13027 0.795061L1.11014 5.29896L10.0095 13.061L1.22423 20.9189Z" fill="#79674B"/>
<path d="M66.5999 25.9978L60.5529 20.9189L69.3382 12.9652L60.4388 5.20314L66.3717 -0.0673828L82.0026 12.5819L66.5999 25.9978ZM61.4657 20.9189L66.5999 25.2311L81.0898 12.7735L66.3717 0.795061L61.3516 5.29896L70.2509 13.061L61.4657 20.9189Z" fill="#79674B"/>
<path d="M46.7476 25.9978L40.7006 20.9189L49.4859 12.9652L40.5865 5.20314L46.5194 -0.0673828L62.1503 12.5819L46.7476 25.9978ZM41.6134 20.9189L46.7476 25.2311L61.2375 12.7735L46.5194 0.795061L41.4993 5.29896L50.3986 13.061L41.6134 20.9189Z" fill="#79674B"/>
<path d="M24.9558 4.91651L30.4323 0.0292969L45.4927 12.3911L30.6605 25.232L25.0699 20.5364L33.8551 12.5827L24.9558 4.91651Z" fill="#53683F"/>
<path d="M5.10339 4.91651L10.5799 0.0292969L25.6403 12.3911L10.694 25.232L5.10339 20.5364L14.0027 12.5827L5.10339 4.91651Z" fill="#53683F"/>
<path d="M65.345 4.91651L70.7074 0.0292969L85.8819 12.3911L70.9356 25.232L65.345 20.5364L74.1302 12.5827L65.345 4.91651Z" fill="#53683F"/>
<path d="M45.3785 4.91651L50.855 0.0292969L66.0295 12.3911L51.0832 25.232L45.4926 20.5364L54.2779 12.5827L45.3785 4.91651Z" fill="#53683F"/>
</g>
<g clip-path="url(#clip1_66_10600)">
<path d="M105.609 25.9978L99.7041 20.9189L108.283 12.9652L99.5927 5.20314L105.386 -0.0673828L120.649 12.5819L105.609 25.9978ZM100.595 20.9189L105.609 25.2311L119.758 12.7735L105.497 0.795061L100.595 5.29896L109.285 13.061L100.595 20.9189Z" fill="#79674B"/>
<path d="M86.2235 25.9978L80.3188 20.9189L88.8973 12.9652L80.2074 5.20314L86.0007 -0.0673828L101.264 12.5819L86.2235 25.9978ZM81.2101 20.9189L86.2235 25.2311L100.372 12.7735L86.0007 0.795061L81.0987 5.29896L89.7886 13.061L81.2101 20.9189Z" fill="#79674B"/>
<path d="M145.048 25.9978L139.143 20.9189L147.721 12.9652L139.031 5.20314L144.825 -0.0673828L160.088 12.5819L145.048 25.9978ZM140.034 20.9189L145.048 25.2311L159.197 12.7735L144.825 0.795061L139.923 5.29896L148.613 13.061L140.034 20.9189Z" fill="#79674B"/>
<path d="M125.662 25.9978L119.758 20.9189L128.336 12.9652L119.646 5.20314L125.44 -0.0673828L140.703 12.5819L125.662 25.9978ZM120.649 20.9189L125.662 25.2311L139.811 12.7735L125.44 0.795061L120.538 5.29896L129.228 13.061L120.649 20.9189Z" fill="#79674B"/>
<path d="M104.383 4.91651L109.731 0.0292969L124.437 12.3911L109.954 25.232L104.495 20.5364L113.073 12.5827L104.383 4.91651Z" fill="#53683F"/>
<path d="M84.998 4.91651L90.3457 0.0292969L105.052 12.3911L90.4571 25.232L84.998 20.5364L93.688 12.5827L84.998 4.91651Z" fill="#53683F"/>
<path d="M143.822 4.91651L149.058 0.0292969L163.876 12.3911L149.281 25.232L143.822 20.5364L152.401 12.5827L143.822 4.91651Z" fill="#53683F"/>
<path d="M124.326 4.91651L129.673 0.0292969L144.491 12.3911L129.896 25.232L124.437 20.5364L133.015 12.5827L124.326 4.91651Z" fill="#53683F"/>
</g>
<g clip-path="url(#clip2_66_10600)">
<path d="M186.636 25.9978L180.54 20.9189L189.396 12.9652L180.425 5.20314L186.406 -0.0673828L202.164 12.5819L186.636 25.9978ZM181.46 20.9189L186.636 25.2311L201.244 12.7735L186.521 0.795061L181.46 5.29896L190.432 13.061L181.46 20.9189Z" fill="#79674B"/>
<path d="M166.622 25.9978L160.526 20.9189L169.383 12.9652L160.411 5.20314L166.392 -0.0673828L182.15 12.5819L166.622 25.9978ZM161.446 20.9189L166.622 25.2311L181.23 12.7735L166.392 0.795061L161.331 5.29896L170.303 13.061L161.446 20.9189Z" fill="#79674B"/>
<path d="M227.353 25.9978L221.257 20.9189L230.114 12.9652L221.142 5.20314L227.123 -0.0673828L242.881 12.5819L227.353 25.9978ZM222.177 20.9189L227.353 25.2311L241.961 12.7735L227.123 0.795061L222.062 5.29896L231.034 13.061L222.177 20.9189Z" fill="#79674B"/>
<path d="M207.34 25.9978L201.244 20.9189L210.1 12.9652L201.129 5.20314L207.11 -0.0673828L222.868 12.5819L207.34 25.9978ZM202.164 20.9189L207.34 25.2311L221.947 12.7735L207.11 0.795061L202.049 5.29896L211.02 13.061L202.164 20.9189Z" fill="#79674B"/>
<path d="M185.371 4.91651L190.892 0.0292969L206.075 12.3911L191.122 25.232L185.486 20.5364L194.342 12.5827L185.371 4.91651Z" fill="#53683F"/>
<path d="M165.357 4.91651L170.878 0.0292969L186.061 12.3911L170.993 25.232L165.357 20.5364L174.329 12.5827L165.357 4.91651Z" fill="#53683F"/>
<path d="M226.088 4.91651L231.494 0.0292969L246.792 12.3911L231.724 25.232L226.088 20.5364L234.945 12.5827L226.088 4.91651Z" fill="#53683F"/>
<path d="M205.96 4.91651L211.481 0.0292969L226.778 12.3911L211.711 25.232L206.075 20.5364L214.931 12.5827L205.96 4.91651Z" fill="#53683F"/>
</g>
<defs>
<clipPath id="clip0_66_10600">
<rect width="85" height="25" fill="white" transform="translate(-0.000244141)"/>
</clipPath>
<clipPath id="clip1_66_10600">
<rect width="83" height="25" fill="white" transform="translate(79.9998)"/>
</clipPath>
<clipPath id="clip2_66_10600">
<rect width="86" height="25" fill="white" transform="translate(160)"/>
</clipPath>
</defs>
</svg>
